<svg width="30" height="30" viewBox="0 0 30 30" fill="none" xmlns="http://www.w3.org/2000/svg">
<g clip-path="url(#clip0_3_27)">
<path d="M14.88 2.71997C12.5779 2.71997 10.3701 3.63447 8.74233 5.26228C7.11451 6.8901 6.20001 9.09789 6.20001 11.4V15.7747C6.20019 15.967 6.15562 16.1568 6.06981 16.329L3.94073 20.5859C3.83673 20.7939 3.78762 21.025 3.79807 21.2573C3.80852 21.4896 3.87818 21.7153 4.00043 21.9131C4.12269 22.1109 4.29348 22.2742 4.49658 22.3874C4.69969 22.5006 4.92837 22.56 5.16089 22.56H24.5991C24.8317 22.56 25.0603 22.5006 25.2634 22.3874C25.4666 22.2742 25.6373 22.1109 25.7596 21.9131C25.8819 21.7153 25.9515 21.4896 25.962 21.2573C25.9724 21.025 25.9233 20.7939 25.8193 20.5859L23.6915 16.329C23.6052 16.1569 23.5602 15.9671 23.56 15.7747V11.4C23.56 9.09789 22.6455 6.8901 21.0177 5.26228C19.3899 3.63447 17.1821 2.71997 14.88 2.71997ZM14.88 26.28C14.1104 26.2802 13.3597 26.0418 12.7313 25.5977C12.1028 25.1535 11.6275 24.5255 11.3708 23.8H18.3892C18.1325 24.5255 17.6572 25.1535 17.0288 25.5977C16.4003 26.0418 15.6496 26.2802 14.88 26.28Z" fill="#212326"/>
</g>
<defs>
<clipPath id="clip0_3_27">
<rect width="29.76" height="29.76" fill="white" transform="translate(0 0.23999)"/>
</clipPath>
</defs>
</svg>
