<svg width="58" height="23" viewBox="0 0 58 23" fill="none" xmlns="http://www.w3.org/2000/svg">
<path d="M3.024 22V9.316H0.644V6.292H3.024V4.696C3.024 3.38933 3.39733 2.39067 4.144 1.7C4.89067 0.990666 5.964 0.636 7.364 0.636H9.716V3.632H8.26C7.308 3.632 6.832 4.164 6.832 5.228V6.292H9.716V9.316H6.832V22H3.024ZM15.596 22C14.4013 22 13.496 21.7293 12.88 21.188C12.264 20.628 11.956 19.7507 11.956 18.556V0.636H15.736V17.436C15.736 17.9587 15.8293 18.332 16.016 18.556C16.2213 18.7613 16.5573 18.864 17.024 18.864H18.032V22H15.596ZM25.9538 22.308C23.5271 22.308 21.8938 21.44 21.0538 19.704C20.7925 19.1813 20.6151 18.612 20.5218 17.996C20.4285 17.3613 20.3818 16.4747 20.3818 15.336V6.292H24.1618V15.364C24.1618 16.1667 24.2178 16.82 24.3298 17.324C24.4605 17.8093 24.6565 18.2013 24.9178 18.5C25.3658 18.9667 26.0285 19.2 26.9058 19.2C27.9885 19.2 28.7911 18.8827 29.3138 18.248C29.6311 17.8747 29.8551 17.38 29.9858 16.764C30.1351 16.148 30.2098 15.3173 30.2098 14.272V6.292H33.9898V22H30.2098V20.012C29.6311 20.8147 29.0058 21.4027 28.3338 21.776C27.6805 22.1307 26.8871 22.308 25.9538 22.308ZM40.4143 22H36.1023L41.4783 14.076L36.0743 6.292H40.4143L43.8303 11.556L47.3303 6.292H51.7263L46.2103 14.076L51.6983 22H47.3303L43.8583 16.652L40.4143 22Z" fill="#212326"/>
<path d="M55.2832 22.308C54.6672 22.308 54.1258 22.084 53.6592 21.636C53.2112 21.188 52.9872 20.656 52.9872 20.04C52.9872 19.4427 53.2112 18.9293 53.6592 18.5C54.1258 18.052 54.6672 17.828 55.2832 17.828C55.8805 17.828 56.3938 18.052 56.8232 18.5C57.2525 18.9293 57.4672 19.4427 57.4672 20.04C57.4672 20.6747 57.2525 21.216 56.8232 21.664C56.3938 22.0933 55.8805 22.308 55.2832 22.308Z" fill="#00985F"/>
</svg>
