<svg width="28" height="28" viewBox="0 0 28 28" fill="none" xmlns="http://www.w3.org/2000/svg">
<path d="M22.2495 5.7505C21.1696 4.66206 19.8846 3.79867 18.4687 3.2103C17.0529 2.62193 15.5344 2.32029 14.0012 2.32283C12.4676 2.32043 10.9488 2.62213 9.5326 3.21048C8.11639 3.79883 6.8309 4.66215 5.75049 5.7505C1.20166 10.2982 1.20166 17.7007 5.75049 22.2495C6.83092 23.3381 8.11658 24.2016 9.53302 24.79C10.9495 25.3784 12.4685 25.6799 14.0023 25.6772C15.5355 25.6799 17.0539 25.3784 18.4698 24.7902C19.8856 24.2021 21.1707 23.3389 22.2507 22.2507C26.7995 17.703 26.7995 10.3005 22.2495 5.7505ZM14.2112 4.66666H13.7923C13.8635 4.6655 13.9312 4.65616 14.0023 4.65616C14.0735 4.65616 14.14 4.6655 14.2112 4.66666ZM21.2835 19.8333H18.6667L17.199 22.7687C16.1752 23.1469 15.0926 23.3416 14.0012 23.3438C12.9077 23.3418 11.8231 23.1467 10.7975 22.7675L9.33333 19.845H6.72583C5.76383 18.649 5.11327 17.2333 4.83233 15.7243L6.99999 12.8333L5.58133 9.99483C6.034 9.03185 6.64929 8.15411 7.40016 7.40016C8.45108 6.34557 9.7392 5.55789 11.1568 5.103L14 7L16.8443 5.10416C18.2615 5.55938 19.5495 6.34656 20.601 7.40016C21.351 8.15321 21.9659 9.02973 22.4187 9.99133L21 12.8333L23.1677 15.7243C22.888 17.2284 22.2407 18.64 21.2835 19.8333Z" fill="#212326"/>
<path d="M9.91666 12.8334L11.6667 17.5H16.3333L18.0833 12.8334L14 9.91669L9.91666 12.8334Z" fill="#212326"/>
</svg>
