<svg width="31" height="25" viewBox="0 0 31 25" fill="none" xmlns="http://www.w3.org/2000/svg">
<path d="M25.3437 24.1666H5.65624C4.44562 24.1667 3.28086 23.7035 2.4009 22.8721C1.52094 22.0407 0.992488 20.9041 0.923948 19.6954L0.916657 19.4271V4.11456C0.916554 3.28313 1.23209 2.48266 1.79949 1.87492C2.36689 1.26719 3.14384 0.897512 3.97332 0.840605L4.19791 0.833313H22.4271C23.2585 0.833211 24.059 1.14874 24.6667 1.71614C25.2744 2.28354 25.6441 3.0605 25.701 3.88998L25.7083 4.11456V5.20831H26.8021C27.6335 5.20821 28.434 5.52374 29.0417 6.09114C29.6494 6.65854 30.0191 7.43549 30.076 8.26498L30.0833 8.48956V19.4271C30.0834 20.6377 29.6202 21.8024 28.7888 22.6824C27.9574 23.5624 26.8207 24.0908 25.6121 24.1594L25.3437 24.1666ZM5.65624 21.9791H25.3437C25.9845 21.9791 26.6017 21.738 27.0729 21.3039C27.5441 20.8697 27.8347 20.2742 27.8871 19.6356L27.8958 19.4271V8.48956C27.8958 8.22526 27.8001 7.9699 27.6264 7.77071C27.4526 7.57151 27.2127 7.44197 26.9508 7.40602L26.8021 7.39581H25.7083V18.6979C25.7083 18.9622 25.6126 19.2176 25.4389 19.4168C25.2651 19.6159 25.0252 19.7455 24.7633 19.7814L24.6146 19.7916C24.3503 19.7916 24.0949 19.6959 23.8957 19.5222C23.6965 19.3485 23.567 19.1085 23.531 18.8466L23.5208 18.6979V4.11456C23.5208 3.85026 23.4251 3.5949 23.2514 3.39571C23.0776 3.19651 22.8377 3.06697 22.5758 3.03102L22.4271 3.02081H4.19791C3.9336 3.02082 3.67824 3.11654 3.47905 3.29027C3.27986 3.46399 3.15031 3.70396 3.11436 3.96581L3.10416 4.11456V19.4271C3.10418 20.0675 3.34503 20.6846 3.7789 21.1558C4.21276 21.6269 4.80793 21.9177 5.44624 21.9704L5.65624 21.9791ZM15.8587 16.1458H20.2425C20.5196 16.1459 20.7864 16.2512 20.9889 16.4404C21.1913 16.6295 21.3145 16.8885 21.3334 17.165C21.3522 17.4415 21.2655 17.7148 21.0906 17.9298C20.9157 18.1448 20.6658 18.2853 20.3912 18.3231L20.2425 18.3333H15.8587C15.5816 18.3332 15.3149 18.228 15.1124 18.0388C14.9099 17.8496 14.7868 17.5906 14.7679 17.3141C14.749 17.0376 14.8357 16.7643 15.0106 16.5493C15.1855 16.3344 15.4355 16.1938 15.71 16.156L15.8587 16.1458ZM11.4794 11.0489C11.7694 11.0489 12.0476 11.1642 12.2528 11.3693C12.4579 11.5744 12.5731 11.8526 12.5731 12.1427V17.2396C12.5731 17.5296 12.4579 17.8078 12.2528 18.013C12.0476 18.2181 11.7694 18.3333 11.4794 18.3333H6.38249C6.09241 18.3333 5.81421 18.2181 5.60909 18.013C5.40397 17.8078 5.28874 17.5296 5.28874 17.2396V12.1427C5.28874 11.8526 5.40397 11.5744 5.60909 11.3693C5.81421 11.1642 6.09241 11.0489 6.38249 11.0489H11.4794ZM10.3856 13.2364H7.47624V16.1458H10.3856V13.2364ZM15.8587 11.0489H20.2425C20.5196 11.049 20.7864 11.1543 20.9889 11.3435C21.1913 11.5327 21.3145 11.7917 21.3334 12.0681C21.3522 12.3446 21.2655 12.6179 21.0906 12.8329C20.9157 13.0479 20.6658 13.1885 20.3912 13.2262L20.2425 13.2364H15.8587C15.5796 13.2393 15.31 13.1353 15.1051 12.9458C14.9002 12.7564 14.7754 12.4957 14.7564 12.2172C14.7374 11.9388 14.8256 11.6636 15.0028 11.448C15.1801 11.2325 15.4331 11.0928 15.71 11.0577L15.8587 11.0489ZM6.38249 5.9404H20.2425C20.5216 5.93756 20.7912 6.04152 20.9961 6.231C21.2011 6.42048 21.3258 6.68113 21.3448 6.95959C21.3638 7.23805 21.2757 7.51324 21.0984 7.72881C20.9211 7.94438 20.6681 8.08403 20.3912 8.11915L20.2425 8.1279H6.38249C6.10537 8.12781 5.83862 8.02254 5.63613 7.83335C5.43364 7.64417 5.31051 7.38517 5.29162 7.1087C5.27273 6.83222 5.35949 6.55889 5.53437 6.34392C5.70925 6.12895 5.95921 5.98838 6.23374 5.9506L6.38249 5.9404Z" fill="#212326"/>
</svg>
