<svg width="12" height="12" viewBox="0 0 12 12" fill="none" xmlns="http://www.w3.org/2000/svg">
<g clip-path="url(#clip0_3_11)">
<path fill-rule="evenodd" clip-rule="evenodd" d="M5.25 1C4.5723 1.00006 3.90444 1.16218 3.30213 1.47285C2.69983 1.78351 2.18055 2.23371 1.78762 2.78588C1.39469 3.33805 1.13951 3.97617 1.04336 4.64702C0.947208 5.31787 1.01288 6.00199 1.23489 6.64229C1.45691 7.2826 1.82883 7.86053 2.31962 8.32786C2.81042 8.7952 3.40586 9.13839 4.05626 9.3288C4.70667 9.51921 5.39318 9.55132 6.05851 9.42246C6.72385 9.29359 7.34873 9.00748 7.881 8.588L9.707 10.414C9.80131 10.5051 9.92761 10.5555 10.0587 10.5543C10.1898 10.5532 10.3152 10.5006 10.4079 10.4079C10.5006 10.3152 10.5532 10.1898 10.5543 10.0587C10.5555 9.9276 10.5051 9.8013 10.414 9.707L8.58801 7.881C9.082 7.25431 9.38959 6.5012 9.47555 5.70786C9.56152 4.91453 9.4224 4.11301 9.07412 3.39505C8.72583 2.67708 8.18245 2.07168 7.50616 1.64812C6.82986 1.22455 6.04799 0.999946 5.25 1ZM2 5.25C2 4.38805 2.34241 3.5614 2.95191 2.9519C3.5614 2.34241 4.38805 2 5.25 2C6.11196 2 6.93861 2.34241 7.5481 2.9519C8.1576 3.5614 8.5 4.38805 8.5 5.25C8.5 6.11195 8.1576 6.9386 7.5481 7.5481C6.93861 8.15759 6.11196 8.5 5.25 8.5C4.38805 8.5 3.5614 8.15759 2.95191 7.5481C2.34241 6.9386 2 6.11195 2 5.25Z" fill="#777777"/>
</g>
<defs>
<clipPath id="clip0_3_11">
<rect width="12" height="12" fill="white"/>
</clipPath>
</defs>
</svg>
